HIERARCHY
ROOT Hips
{
	OFFSET 0.000000 0.000000 0.000000
	CHANNELS 6 Xposition Yposition Zposition Zrotation Yrotation Xrotation 
	JOINT LHipJoint
	{
		OFFSET 0.000000 0.000000 0.000000
		CHANNELS 3 Zrotation Yrotation Xrotation
		JOINT LeftUpLeg
		{
			OFFSET 1.363060 -1.794630 0.839290
			CHANNELS 3 Zrotation Yrotation Xrotation
			JOINT LeftLeg
			{
				OFFSET 2.448110 -6.726130 0.000000
				CHANNELS 3 Zrotation Yrotation Xrotation
				JOINT LeftFoot
				{
					OFFSET 2.562200 -7.039590 0.000000
					CHANNELS 3 Zrotation Yrotation Xrotation
					JOINT LeftToeBase
					{
						OFFSET 0.157640 -0.433110 2.322550
						CHANNELS 3 Zrotation Yrotation Xrotation
						End Site
						{
							OFFSET 0.000000 0.000000 0.000000
						}
					}
				}
			}
		}
	}
	JOINT RHipJoint
	{
		OFFSET 0.000000 0.000000 0.000000
		CHANNELS 3 Zrotation Yrotation Xrotation
		JOINT RightUpLeg
		{
			OFFSET -1.305520 -1.794630 0.839290
			CHANNELS 3 Zrotation Yrotation Xrotation
			JOINT RightLeg
			{
				OFFSET -2.542530 -6.985550 0.000000
				CHANNELS 3 Zrotation Yrotation Xrotation
				JOINT RightFoot
				{
					OFFSET -2.568260 -7.056230 0.000000
					CHANNELS 3 Zrotation Yrotation Xrotation
					JOINT RightToeBase
					{
						OFFSET -0.164730 -0.452590 2.363150
						CHANNELS 3 Zrotation Yrotation Xrotation
						End Site
						{
							OFFSET 0.000000 0.000000 0.000000
						}
					}
				}
			}
		}
	}
	JOINT LowerBack
	{
		OFFSET 0.000000 0.000000 0.000000
		CHANNELS 3 Zrotation Yrotation Xrotation
		JOINT Spine
		{
			OFFSET 0.028270 2.035590 -0.193380
			CHANNELS 3 Zrotation Yrotation Xrotation
			JOINT Spine1
			{
				OFFSET 0.056720 2.048850 -0.042750
				CHANNELS 3 Zrotation Yrotation Xrotation
				JOINT Neck
				{
					OFFSET 0.000000 0.000000 0.000000
					CHANNELS 3 Zrotation Yrotation Xrotation
					JOINT Neck1
					{
						OFFSET -0.054170 1.746240 0.172020
						CHANNELS 3 Zrotation Yrotation Xrotation
						JOINT Head
						{
							OFFSET 0.104070 1.761360 -0.123970
							CHANNELS 3 Zrotation Yrotation Xrotation
							End Site
							{
								OFFSET 0.000000 0.000000 0.000000
							}
						}
					}
				}
				JOINT LeftShoulder
				{
					OFFSET 0.000000 0.000000 0.000000
					CHANNELS 3 Zrotation Yrotation Xrotation
					JOINT LeftArm
					{
						OFFSET 3.362410 1.200890 -0.311210
						CHANNELS 3 Zrotation Yrotation Xrotation
						JOINT LeftForeArm
						{
							OFFSET 4.983000 -0.000000 -0.000000
							CHANNELS 3 Zrotation Yrotation Xrotation
							JOINT LeftHand
							{
								OFFSET 3.483560 -0.000000 -0.000000
								CHANNELS 3 Zrotation Yrotation Xrotation
								JOINT LeftFingerBase
								{
									OFFSET 0.000000 0.000000 0.000000
									CHANNELS 3 Zrotation Yrotation Xrotation
									JOINT LeftHandIndex1
									{
										OFFSET 0.715260 -0.000000 -0.000000
										CHANNELS 3 Zrotation Yrotation Xrotation
										End Site
										{
											OFFSET 0.000000 0.000000 0.000000
										}
									}
								}
								JOINT LThumb
								{
									OFFSET 0.000000 0.000000 0.000000
									CHANNELS 3 Zrotation Yrotation Xrotation
									End Site
									{
										OFFSET 0.000000 0.000000 0.000000
									}
								}
							}
						}
					}
				}
				JOINT RightShoulder
				{
					OFFSET 0.000000 0.000000 0.000000
					CHANNELS 3 Zrotation Yrotation Xrotation
					JOINT RightArm
					{
						OFFSET -3.136600 1.374050 -0.404650
						CHANNELS 3 Zrotation Yrotation Xrotation
						JOINT RightForeArm
						{
							OFFSET -5.241900 -0.000000 -0.000000
							CHANNELS 3 Zrotation Yrotation Xrotation
							JOINT RightHand
							{
								OFFSET -3.444170 -0.000000 -0.000000
								CHANNELS 3 Zrotation Yrotation Xrotation
								JOINT RightFingerBase
								{
									OFFSET 0.000000 0.000000 0.000000
									CHANNELS 3 Zrotation Yrotation Xrotation
									JOINT RightHandIndex1
									{
										OFFSET -0.622530 -0.000000 -0.000000
										CHANNELS 3 Zrotation Yrotation Xrotation
										End Site
										{
											OFFSET 0.000000 0.000000 0.000000
										}
									}
								}
								JOINT RThumb
								{
									OFFSET 0.000000 0.000000 0.000000
									CHANNELS 3 Zrotation Yrotation Xrotation
									End Site
									{
										OFFSET 0.000000 0.000000 0.000000
									}
								}
							}
						}
					}
				}
			}
		}
	}
}
MOTION
Frames: 7
Frame Time: 0.008333
31.494745 16.537538 6.434760 178.067870 -39.474643 -172.148898 2.882374 -8.637224 -11.443945 -15.465965 -16.296528 -16.426376 -14.975562 2.390993 32.462855 -15.346325 -14.159042 10.259844 -2.736585 -19.040221 18.631439 7.524664 21.086038 -15.305304 -7.059422 -10.344142 11.820922 5.918342 -9.183832 16.645875 10.371495 2.666733 -11.462429 -16.285351 19.020433 -20.512404 -8.657185 -2.666390 31.310636 4.445368 -1.922613 -10.201069 2.995309 -1.760023 -7.634613 0.087442 2.269999 -5.135661 8.640842 1.160721 14.687530 -16.894650 16.349578 9.036878 14.883654 -7.464633 1.807280 -90.926753 -35.879419 25.000652 -14.410695 -54.598416 0.760050 -2.361671 18.973354 -3.065833 0.000001 -0.000001 0.000002 0.000000 0.000000 0.000000 -0.000000 0.000000 0.000000 -8.002001 4.732100 2.828950 77.450474 6.762223 7.644800 1.720648 43.159572 7.184488 3.818997 7.997929 1.456359 0.000000 0.000000 0.000000 0.000000 0.000000 0.000000 0.000000 0.000000 0.000000 
31.611111 16.528078 6.384925 177.947281 -41.234978 -171.793002 2.912928 -9.042902 -11.796320 -14.899737 -15.836700 -17.040366 -15.227681 2.753639 32.636886 -16.517926 -14.354632 10.848441 -3.198079 -19.154465 19.601437 6.738468 21.213653 -15.524381 -5.979220 -11.854899 11.391162 5.759955 -9.630159 16.541213 8.183190 2.791576 -12.863641 -15.735540 18.564293 -19.883874 -7.966683 -2.593035 31.717867 4.156886 -1.610089 -10.228382 2.830891 -1.428517 -7.840563 -0.212448 2.141223 -5.175232 8.608573 1.089453 14.312822 -15.927481 15.495495 9.151485 14.847470 -7.928511 1.648608 -91.608252 -36.441720 26.371692 -14.358217 -55.907720 1.256596 -1.981420 18.952702 -3.003009 0.000001 -0.000001 0.000002 0.000000 0.000000 -0.000000 0.000000 0.000000 0.000000 -8.582153 4.396700 2.924771 77.663760 6.577199 7.439875 1.789308 42.392706 7.323199 3.836012 8.284539 1.508111 -0.000000 -0.000000 0.000000 0.000000 -0.000000 0.000000 -0.000000 -0.000000 0.000000 
31.730480 16.516667 6.314730 177.435581 -43.076976 -171.293803 2.756189 -9.266815 -11.951940 -14.561373 -15.358966 -17.742769 -14.442564 4.515113 32.309819 -19.906586 -15.336594 13.152595 -5.266343 -18.693884 23.603414 6.456277 20.875686 -15.780509 -5.756657 -14.162305 10.916407 4.692340 -11.346011 16.197938 4.472906 5.408643 -13.233640 -6.680114 6.143470 -12.180516 -7.658149 -2.426929 32.099297 3.965888 -1.517316 -10.218811 2.385195 -1.311962 -7.900369 -0.112458 1.968619 -5.234268 8.557957 0.911353 13.975765 -15.616875 14.730421 9.397003 15.164197 -8.188404 1.388061 -92.185047 -36.824680 27.646870 -14.403969 -57.205746 1.457765 -3.057228 19.132557 -3.202337 0.000001 -0.000001 0.000002 -0.000000 0.000000 0.000000 0.000000 -0.000000 0.000000 -8.700532 4.261267 2.971984 77.835273 6.374209 7.049530 2.155017 41.618365 9.849364 2.922686 12.511089 2.134170 -0.000000 0.000000 0.000000 -0.000000 0.000000 -0.000000 -0.000000 0.000000 0.000000 
31.844144 16.504054 6.252132 177.051657 -44.835241 -170.783145 2.696795 -9.562306 -12.184445 -14.219159 -14.733010 -18.527208 -14.893109 4.281944 32.816855 -20.572854 -15.215218 13.430882 -4.992947 -21.386378 23.990725 5.742007 20.827986 -16.000472 -4.837152 -15.699013 10.500547 4.419170 -11.849690 16.041045 2.673357 5.712779 -14.680718 -6.084682 5.083812 -11.792452 -7.171268 -2.408892 32.389658 3.721769 -1.259963 -10.185879 1.501251 -1.055399 -7.601815 0.303582 1.889622 -5.636793 8.517982 0.808627 13.622132 -15.249806 14.236789 9.454202 15.801879 -8.416713 1.045794 -92.776219 -37.531065 29.048703 -14.515262 -58.520934 1.485174 -2.969559 19.577689 -3.265343 0.000001 -0.000001 0.000002 0.000000 0.000000 -0.000000 0.000000 -0.000000 0.000000 -8.504493 3.831469 2.895650 77.904575 6.381616 6.762348 2.576725 40.914842 10.164760 2.702721 12.906733 2.171786 -0.000000 0.000000 0.000000 -0.000000 -0.000000 0.000000 -0.000000 0.000000 0.000000 
31.953904 16.493994 6.191141 176.681854 -46.568936 -170.255320 2.558168 -9.847973 -12.423661 -13.730422 -14.343936 -19.248701 -15.062884 4.679486 33.027510 -21.452894 -15.395397 14.138262 -4.956676 -23.302773 24.548230 5.087591 20.628219 -16.141610 -3.848509 -16.990323 9.937273 4.133460 -12.479024 15.859769 0.885096 6.001456 -16.065186 -5.381223 4.193290 -10.927912 -6.526697 -2.282393 32.659171 3.510616 -1.236134 -10.175717 1.639583 -0.966247 -8.050954 -0.272228 1.811253 -5.280995 8.439887 0.787852 13.327222 -14.641919 13.720847 10.238955 15.246429 -8.663149 0.942379 -93.166128 -37.655375 30.343031 -14.340059 -59.882040 1.915886 -4.069522 19.301209 -3.393542 0.000001 -0.000001 0.000002 -0.000000 0.000000 0.000000 -0.000000 -0.000000 0.000000 -9.267974 4.100586 3.060446 77.899906 5.920313 6.938254 2.640241 40.293256 9.557775 2.518002 11.796653 1.965141 0.000000 -0.000000 0.000000 0.000000 0.000000 -0.000000 0.000000 -0.000000 0.000000 
32.065766 16.482132 6.131411 176.216292 -48.192999 -169.810821 2.655142 -10.164019 -12.706740 -13.691365 -13.613925 -19.670906 -15.131875 5.091847 32.995772 -22.384421 -14.675581 14.819091 -2.696635 -22.576700 19.971772 4.673580 20.808685 -16.327575 -3.237148 -17.924081 9.930893 3.633542 -13.361607 15.489055 -1.210642 5.831512 -16.489285 -4.370636 2.605514 -9.956718 -6.207394 -2.297170 33.038430 3.365697 -1.194431 -10.141778 1.430737 -0.828785 -8.280587 -0.327272 1.725986 -5.187380 8.288082 0.747628 13.039361 -14.514070 13.303216 10.092463 15.523921 -8.738768 1.030945 -93.841349 -37.713900 31.195308 -14.063179 -61.180407 2.051042 -4.444024 19.503082 -3.491221 0.000001 -0.000001 0.000002 0.000000 0.000000 0.000000 0.000000 0.000000 -0.000000 -9.650068 4.260129 2.999660 78.108273 5.716572 6.964079 2.674896 40.607190 2.371278 4.448472 -0.852194 -0.085515 -0.000000 -0.000000 0.000000 0.000000 -0.000000 0.000000 -0.000000 -0.000000 0.000000 
32.164414 16.472823 6.074414 175.711592 -49.650975 -169.323913 2.594196 -10.347022 -12.925698 -13.595356 -12.915264 -20.117974 -15.019895 5.743912 32.897408 -23.210186 -14.106669 15.596993 -0.734035 -21.200216 15.650323 4.344708 20.679592 -16.446580 -2.596062 -18.440639 9.818918 3.048090 -14.366890 15.125178 -1.786331 5.973356 -16.712671 -3.726248 1.234252 -9.708584 -5.788233 -2.240570 33.342926 3.185693 -1.041939 -10.122763 1.177132 -0.617253 -8.535898 -0.446022 1.674311 -5.052907 8.129548 0.726656 12.790978 -14.016241 12.773929 9.806663 15.612366 -9.048077 0.980281 -94.424149 -37.554805 31.946797 -13.743058 -62.452346 1.899039 -4.885763 19.987987 -3.655441 0.000001 -0.000001 0.000002 0.000000 0.000000 -0.000000 0.000000 0.000000 -0.000000 -10.009307 4.226687 3.033169 78.176842 5.514724 6.761213 2.911045 41.008109 1.240959 4.890014 -2.831004 -0.447125 0.000000 0.000000 -0.000000 -0.000000 0.000000 -0.000000 0.000000 0.000000 -0.000000 
